<svg xmlns:mydata="http://www.w3.org/2000/svg" mydata:contrastcolor="271d3b" mydata:template="Contrast" mydata:presentation="2.5" mydata:layouttype="undefined" mydata:specialfontid="undefined" mydata:id1="830" mydata:id2="078" mydata:companyname="cv" mydata:companytagline="" version="1.1" xmlns="http://www.w3.org/2000/svg" xmlns:xlink="http://www.w3.org/1999/xlink" viewBox="0 0 550 470" class="svg-primary-tile"><defs><linearGradient x1="93.14114" y1="235" x2="456.85886" y2="235" gradientUnits="userSpaceOnUse" id="color-1595824119"><stop offset="0" stop-color="#8360c3"></stop><stop offset="1" stop-color="#2ebf91"></stop></linearGradient></defs><g fill="url(#color-1595824119)" fill-rule="none" stroke="none" stroke-width="1" stroke-linecap="butt" stroke-linejoin="miter" stroke-miterlimit="10" stroke-dasharray="" stroke-dashoffset="0" font-family="none" font-weight="none" font-size="none" text-anchor="none" style="mix-blend-mode: normal"><g data-paper-data="{&quot;isGlobalGroup&quot;:true,&quot;bounds&quot;:{&quot;x&quot;:93.14114059309522,&quot;y&quot;:189.96268567867682,&quot;width&quot;:363.7177188138096,&quot;height&quot;:90.07462864264633}}"><g data-paper-data="{&quot;isPrimaryText&quot;:true}"><path d="M195.11561,235.06425c0,25.18492 21.84406,44.97307 47.28597,44.97307h113.20363l-12.84945,-14.0059h-17.73224c-26.72685,0 -63.47627,0.25699 -77.48217,0.25699h-5.65376c-18.5032,0 -32.5091,-14.90536 -32.5091,-30.96717c0.12849,-1.92742 0.25699,-3.34086 0.64247,-4.7543l0.38548,-1.79892c3.08387,-13.8774 16.44729,-24.54245 31.73814,-24.54245h43.94511l-12.84945,-14.0059h-30.96717c-25.05642,0 -47.15747,19.65966 -47.15747,44.84457zM292.51442,189.96269c8.22365,8.86612 28.65427,31.48115 47.15747,51.65478c10.79354,11.94999 22.48653,24.54245 34.9505,38.29135c13.74891,-14.39138 68.87304,-75.16927 82.23647,-89.94613l-19.53116,0.12849l-62.7053,68.48756l-25.5704,-28.14029c-13.74891,-15.16235 -29.29674,-32.38061 -36.74942,-40.47576z" data-paper-data="{&quot;glyphName&quot;:&quot;&quot;,&quot;glyphIndex&quot;:0,&quot;firstGlyphOfWord&quot;:true,&quot;word&quot;:1}" fill-rule="nonzero"></path><g data-paper-data="{&quot;fillRule&quot;:&quot;evenodd&quot;,&quot;fillRuleOriginal&quot;:&quot;evenodd&quot;,&quot;isIcon&quot;:true,&quot;iconStyle&quot;:&quot;icon-in-text&quot;,&quot;selectedEffects&quot;:{&quot;container&quot;:&quot;enclosed_circle_outline3&quot;,&quot;transformation&quot;:&quot;rotate0;translate50&quot;,&quot;pattern&quot;:&quot;&quot;},&quot;bounds&quot;:{&quot;x&quot;:93.14114059309522,&quot;y&quot;:189.96268567867682,&quot;width&quot;:84.6545770207952,&quot;height&quot;:90.07365634559969},&quot;widthRatioIconToContainer&quot;:0.7217612985666599,&quot;heightRatioIconToContainer&quot;:1,&quot;relativeBoundsIconToContainer&quot;:{&quot;top&quot;:0,&quot;left&quot;:0.03247579080775679},&quot;iconType&quot;:&quot;icon&quot;,&quot;rawIconId&quot;:&quot;818&quot;,&quot;isDetailed&quot;:false,&quot;blockLetter&quot;:&quot;O&quot;,&quot;blockLetterId&quot;:0,&quot;suitableAsStandaloneIcon&quot;:true}" fill-rule="evenodd"><g data-paper-data="{&quot;isPathIcon&quot;:true}"><path d="M131.39189,189.96269c5.64398,6.76997 3.19799,20.73492 -13.56395,37.36386c-31.96878,37.67886 21.71592,52.7098 21.71692,52.7098c-4.53298,-13.58595 1.60599,-21.51992 6.39598,-27.70989c1.136,-1.46799 2.19699,-2.83799 3.01999,-4.16298c25.0969,-40.66684 -17.56893,-58.20078 -17.56893,-58.20078z"></path><path d="M118.99194,195.99966c-5.06398,2.14199 -9.5483,5.16531 -13.45295,9.06997c-3.90499,3.90499 -6.92897,8.38997 -9.07087,13.45395c-2.21799,5.24398 -3.32699,10.73596 -3.32699,16.47594c0,5.73998 1.109,11.23196 3.32699,16.47594c2.14189,5.06398 5.16588,9.54896 9.07087,13.45395c3.90399,3.90499 8.38897,6.92797 13.45295,9.06997c1.054,0.446 2.11799,0.847 3.19099,1.203l-0.426,-0.262l-0.796,-0.508l-0.788,-0.521l-0.781,-0.536l-0.773,-0.551l-0.764,-0.566l-0.755,-0.582l-0.744,-0.598l-0.734,-0.616l-0.045,-0.04l-0.677,-0.594l-0.046,-0.042l-0.663,-0.61l-0.048,-0.045l-0.647,-0.626l-0.049,-0.048l-0.632,-0.642l-0.049,-0.052l-0.614,-0.659l-0.051,-0.055l-0.596,-0.676l-0.051,-0.059l-0.576,-0.693l-0.051,-0.064l-0.511,-0.654c-0.851,-0.719 -1.67599,-1.47799 -2.47499,-2.27599c-3.60599,-3.60599 -6.39698,-7.74597 -8.37417,-12.41995c-2.04649,-4.83898 -3.06969,-9.90796 -3.06969,-15.20794c0,-5.29998 1.0232,-10.36896 3.06969,-15.20794c1.97719,-4.67398 4.76818,-8.81397 8.37417,-12.41995c3.60499,-3.60499 7.74497,-6.39698 12.41995,-8.37397c3.34699,-1.41499 6.80497,-2.34099 10.37296,-2.77799l-1.052,-3.14699c-3.63599,0.503 -7.16597,1.47799 -10.58996,2.92699z"></path><path d="M165.39776,205.06963c-3.90499,-3.90499 -8.38897,-6.92797 -13.45295,-9.06997c-3.13132,-1.32466 -6.35098,-2.25366 -9.65896,-2.78699l0.756,0.562l0.751,0.578l0.741,0.592l0.73,0.606l0.721,0.619l0.709,0.634l0.698,0.648l0.514,0.495c0.931,0.314 1.85499,0.664 2.76999,1.051c4.67498,1.97699 8.81397,4.76898 12.41995,8.37397c3.60599,3.60599 6.39698,7.74597 8.37397,12.41995c2.04666,4.83865 3.06999,9.90796 3.06999,15.20794c0,5.29998 -1.024,10.36896 -3.06999,15.20794c-0.03,0.07067 -0.06033,0.14133 -0.091,0.212l-0.005,0.09l-0.008,0.094l-0.091,0.896l-0.011,0.097l-0.123,0.892l-0.016,0.099l-0.155,0.887l-0.02,0.1l-0.189,0.881l-0.024,0.101l-0.222,0.872l-0.028,0.102l-0.257,0.863l-0.032,0.101l-0.291,0.853l-0.036,0.1l-0.323,0.841l-0.041,0.099l-0.357,0.827l-0.044,0.097l-0.389,0.812l-0.047,0.095l-0.421,0.796l-0.05,0.092l-0.451,0.779l-0.054,0.088l-0.48,0.762l-0.056,0.085l-0.509,0.743l-0.057,0.081l-0.157,0.212c3.40799,-3.64699 6.08498,-7.77397 8.03397,-12.38095c2.21799,-5.24398 3.32699,-10.73596 3.32699,-16.47594c0,-5.73998 -1.109,-11.23196 -3.32699,-16.47594c-2.14199,-5.06398 -5.16598,-9.54896 -9.07097,-13.45395z"></path><path d="M143.71285,279.10735c0.159,-0.365 1.77699,-2.05199 13.15795,-9.84996c24.64891,-16.84794 3.34999,-44.97983 3.34999,-44.97983c2.22299,4.13198 -2.34099,21.43392 -9.00997,29.31089c-11.34496,13.43495 -8.99397,20.79592 -7.78397,24.58691c0.108,0.338 0.207,0.648 0.286,0.932z"></path><path d="M143.71285,279.10735c-0.045,0.103 0.028,0.1 0.028,0.1c-0.009,-0.033 -0.018,-0.066 -0.028,-0.1z"></path></g></g></g></g></g></svg>